<?xml version="1.0" standalone="no"?>
<!DOCTYPE svg PUBLIC "-//W3C//DTD SVG 20010904//EN"
 "http://www.w3.org/TR/2001/REC-SVG-20010904/DTD/svg10.dtd">
<svg version="1.0" xmlns="http://www.w3.org/2000/svg"
 width="1024.000000pt" height="1024.000000pt" viewBox="0 0 1024.000000 1024.000000"
 preserveAspectRatio="xMidYMid meet">

<g transform="translate(0.000000,1024.000000) scale(0.100000,-0.100000)"
fill="#FFFF00" stroke="none">
<path d="M2713 8225 c-340 -62 -603 -299 -710 -642 l-28 -88 0 -2355 0 -2355
23 -85 c106 -385 409 -651 784 -690 70 -7 846 -9 2388 -7 l2285 3 77 21 c180
51 275 104 393 218 138 135 213 261 268 453 l22 77 3 2320 c3 2570 6 2413 -62
2582 -92 225 -282 413 -509 502 -162 64 -19 61 -2556 60 -1845 -1 -2320 -3
-2378 -14z m1897 -421 c0 -4 -155 -317 -344 -698 -1193 -2398 -1249 -2511
-1250 -2547 0 -19 8 -48 18 -63 36 -56 40 -56 601 -56 283 0 515 -2 515 -3 0
-2 -16 -37 -36 -78 -20 -41 -57 -119 -81 -174 -25 -55 -67 -147 -93 -205 -186
-411 -718 -1522 -733 -1532 -22 -14 -388 -9 -445 6 -190 51 -330 212 -352 406
-13 117 -13 4499 0 4570 23 120 116 254 221 317 106 64 74 62 1072 62 499 1
907 -2 907 -5z m2090 1 c0 -3 -37 -65 -83 -138 -46 -72 -119 -190 -164 -262
-44 -71 -222 -357 -395 -635 -518 -832 -570 -915 -649 -1042 -42 -68 -108
-175 -148 -238 -39 -63 -70 -121 -69 -130 3 -13 82 -15 686 -16 376 -1 686 -5
690 -9 4 -4 -631 -644 -1411 -1422 -781 -778 -1421 -1413 -1423 -1410 -4 3
187 413 403 867 30 63 97 205 148 315 51 110 128 274 170 365 43 91 93 199
112 240 19 41 72 154 117 250 135 286 149 318 143 335 -6 13 -72 15 -587 15
-343 0 -580 4 -580 9 0 28 1326 2703 1426 2878 l19 33 798 0 c438 0 797 -2
797 -5z m754 -10 c147 -38 279 -179 321 -342 22 -86 22 -4522 0 -4627 -16 -74
-83 -203 -103 -199 -7 2 -11 0 -10 -5 5 -13 -29 -53 -43 -50 -7 2 -13 -2 -14
-8 0 -18 -34 -46 -46 -38 -7 4 -9 3 -5 -4 9 -16 -60 -35 -104 -29 -28 3 -37 1
-34 -7 3 -7 18 -11 37 -9 29 2 30 2 7 -6 -14 -5 -42 -9 -63 -10 -22 -1 -36 -5
-32 -11 4 -6 -468 -10 -1371 -10 -1290 0 -1376 1 -1363 17 8 9 51 52 96 96 45
44 80 84 77 88 -3 5 1 7 8 4 7 -2 24 10 37 26 20 26 22 33 10 41 -10 7 -9 8 6
4 15 -4 30 4 53 28 18 19 32 39 32 45 0 6 6 11 13 11 16 0 147 133 147 149 0
7 4 10 9 7 12 -8 74 63 68 79 -4 9 1 11 15 7 17 -4 20 -2 15 11 -4 10 -2 14 6
11 19 -7 121 102 113 121 -4 12 -1 15 12 11 22 -7 74 38 70 60 -2 9 3 19 10
21 8 3 10 -1 5 -14 -4 -11 3 -7 20 11 19 20 25 36 22 50 -5 17 -4 18 4 6 8
-12 13 -12 23 -2 10 10 10 15 -2 23 -12 8 -10 9 7 4 19 -5 22 -3 17 12 -4 13
-3 15 4 5 7 -11 20 -2 58 39 28 30 48 60 47 71 -2 10 2 18 7 18 6 0 10 -5 10
-12 0 -9 3 -9 12 0 9 9 9 15 0 24 -7 7 -12 17 -12 23 0 5 5 2 11 -7 14 -25 24
-23 58 15 35 36 55 83 40 92 -5 4 -7 11 -3 16 3 6 12 3 19 -8 10 -13 10 -20 2
-25 -6 -4 -8 -10 -4 -15 11 -11 28 19 22 38 -6 18 16 41 37 38 34 -4 40 1 33
31 -4 16 -2 30 3 30 5 0 14 10 20 23 7 14 11 17 11 7 1 -9 -4 -21 -11 -28 -6
-6 -8 -15 -4 -19 9 -9 25 14 33 50 5 25 33 40 33 17 0 -5 -4 -10 -9 -10 -5 0
-12 -7 -15 -16 -8 -21 13 -7 39 25 26 33 25 42 -2 52 -16 6 -27 3 -38 -7 -13
-14 -15 -14 -15 0 0 9 7 16 15 16 8 0 15 4 15 10 0 5 15 1 33 -10 24 -14 36
-16 47 -9 13 9 12 10 -2 6 -16 -6 -35 20 -23 31 3 3 5 0 5 -7 0 -7 12 1 26 18
14 17 23 35 19 40 -3 6 0 20 7 31 9 14 10 23 3 28 -6 4 -8 22 -4 42 3 19 7 29
8 23 0 -7 8 -13 16 -13 19 0 19 -9 1 -29 -12 -14 -11 -18 12 -35 25 -19 25
-19 20 1 -3 12 -1 20 6 20 32 -1 46 4 46 16 0 18 48 67 65 67 8 0 15 9 15 20
0 11 9 28 20 37 28 25 25 38 -5 19 -14 -9 -25 -12 -25 -6 0 5 -5 10 -11 10
-11 0 -9 -16 6 -52 4 -10 3 -18 -2 -18 -5 0 -15 16 -23 35 -8 19 -17 35 -22
35 -4 0 -8 5 -8 11 0 8 5 7 16 -2 12 -10 17 -10 23 0 4 6 14 11 21 9 7 -2 15
3 18 11 3 8 0 11 -7 7 -10 -7 -16 18 -12 51 1 6 -3 14 -9 18 -5 3 -10 -1 -10
-9 0 -9 -11 -18 -24 -22 -17 -4 -22 -11 -19 -24 7 -25 -16 -36 -34 -17 -14 14
-13 17 5 28 20 12 20 15 5 31 -9 10 -14 19 -12 21 26 19 70 58 72 64 1 4 8 7
15 7 6 -1 12 3 12 8 0 17 48 69 55 58 3 -5 -3 -18 -14 -29 -18 -18 -18 -20 -3
-25 31 -8 64 0 75 20 6 10 15 22 21 26 7 5 4 8 -6 8 -9 0 -21 -7 -26 -16 -7
-13 -11 -12 -25 10 -17 25 -17 26 23 67 37 38 42 40 58 27 9 -9 24 -13 32 -11
8 3 5 -3 -8 -12 -16 -11 -21 -23 -17 -36 4 -10 2 -19 -4 -19 -6 0 -13 11 -17
25 -3 14 -10 25 -15 25 -5 0 -6 -7 -3 -15 5 -11 2 -13 -10 -9 -11 4 -16 1 -16
-11 0 -9 -4 -13 -10 -10 -5 3 -10 2 -10 -3 0 -18 14 -22 29 -8 11 10 21 12 31
6 12 -8 12 -14 2 -44 -13 -35 -10 -56 9 -56 5 0 9 14 9 31 0 19 4 28 11 23 7
-4 10 4 7 22 -2 23 1 29 16 29 35 0 26 -60 -14 -91 -8 -7 -12 -15 -9 -19 4 -3
14 1 23 11 9 9 25 14 36 11 27 -7 36 11 14 27 -11 8 -13 15 -6 20 6 3 13 2 17
-4 10 -16 28 -12 22 4 -4 11 -1 13 10 9 11 -5 14 -3 9 6 -5 7 -16 11 -26 8
-10 -2 -24 -1 -31 4 -11 7 -9 9 6 9 22 0 55 42 37 48 -5 1 -7 12 -5 23 5 16 2
20 -12 18 -10 -2 -20 -11 -22 -19 -4 -13 -3 -13 6 0 7 9 11 10 11 3 0 -6 -4
-15 -10 -18 -5 -3 -10 -11 -10 -16 0 -6 4 -8 9 -4 5 3 12 1 16 -5 4 -6 -13
-10 -44 -10 -28 0 -51 4 -51 8 0 5 10 8 21 8 15 -1 23 6 25 21 3 17 -3 23 -26
28 -17 4 -30 11 -30 16 0 6 127 138 283 295 325 330 346 350 359 346 5 -1 7 2
3 8 -4 6 61 79 143 163 222 226 225 229 229 290 5 66 -21 110 -80 137 -40 19
-73 20 -704 20 -408 0 -663 4 -663 9 0 6 4 12 9 16 6 3 16 18 24 33 26 50 131
217 139 220 4 2 8 7 8 12 0 8 62 110 215 350 89 141 160 254 180 289 6 9 24
39 41 66 87 137 350 558 359 573 14 25 168 272 233 375 l55 87 86 0 c48 0 113
-7 145 -15z m-1337 -3569 c-9 -9 -21 -16 -27 -16 -7 0 -6 -6 4 -15 8 -8 19
-15 25 -15 6 0 11 -4 11 -10 0 -5 6 -7 13 -5 18 7 42 -34 28 -48 -8 -8 -11 -6
-11 5 0 11 -6 15 -20 11 -12 -3 -20 0 -20 7 0 14 -38 50 -53 50 -5 0 -4 -7 3
-15 12 -15 6 -35 -12 -35 -7 0 -6 6 2 15 9 11 9 15 1 15 -6 0 -14 -7 -17 -15
-4 -8 -12 -15 -19 -15 -12 0 -29 -35 -26 -53 1 -5 -3 -6 -8 -3 -12 8 -61 -32
-61 -49 0 -10 -6 -12 -17 -8 -16 6 -17 5 -3 -13 11 -15 11 -16 0 -6 -14 12
-39 18 -27 6 10 -11 -92 -124 -112 -124 -7 0 -9 -4 -6 -10 3 -5 1 -10 -4 -10
-19 0 -12 18 17 40 15 12 27 25 27 28 0 4 6 6 13 6 6 -1 12 3 12 8 0 13 72
100 78 94 2 -3 12 4 21 16 49 60 187 192 195 186 5 -4 2 -14 -7 -22z m96 -2
c8 -8 -3 -34 -14 -34 -5 0 -9 9 -9 20 0 19 11 26 23 14z m-93 -124 c0 -10 5
-20 10 -22 6 -2 -8 -4 -32 -4 -24 0 -35 1 -25 4 9 2 17 7 17 12 0 16 -28 30
-46 24 -13 -5 -16 -4 -9 4 27 28 85 16 85 -18z m-52 -7 c-10 -2 -26 -2 -35 0
-10 3 -2 5 17 5 19 0 27 -2 18 -5z m96 -40 c-33 -36 -34 -36 -48 -17 -8 10
-12 21 -9 24 3 3 8 -1 10 -7 3 -7 11 -13 18 -13 16 0 28 28 18 42 -3 6 -1 8 5
4 6 -3 13 -2 17 4 4 6 10 8 15 5 4 -3 -7 -22 -26 -42z m-124 18 c0 -6 -5 -13
-11 -17 -8 -5 -8 -8 0 -13 8 -5 7 -13 -4 -27 -14 -19 -14 -19 -15 3 0 32 -19
38 -43 14 l-21 -21 21 0 c12 0 24 8 26 18 3 9 4 5 3 -9 -1 -15 -8 -34 -16 -43
-12 -16 -15 -14 -26 14 -12 27 -11 35 3 56 11 17 23 24 35 21 10 -3 18 -1 18
4 0 5 7 9 15 9 8 0 15 -4 15 -9z m-147 -128 c-9 -23 -20 -4 -15 24 5 24 6 25
12 8 4 -11 5 -26 3 -32z m56 -15 c1 14 31 17 31 2 0 -5 -5 -10 -11 -10 -8 0
-8 -5 1 -15 9 -10 9 -15 1 -15 -6 0 -11 4 -11 10 0 5 -11 12 -24 16 -16 4 -23
12 -21 27 4 34 5 34 20 2 7 -16 14 -24 14 -17z m64 -23 c-3 -9 -8 -14 -10 -11
-3 3 -2 9 2 15 9 16 15 13 8 -4z m-73 -15 c0 -5 -4 -10 -10 -10 -5 0 -10 5
-10 10 0 6 5 10 10 10 6 0 10 -4 10 -10z m-112 -39 c-2 -8 -10 -16 -18 -18
-13 -4 -13 -3 0 6 13 9 13 11 -2 11 -10 0 -18 4 -18 8 0 4 9 8 20 8 13 0 20
-6 18 -15z m-66 -5 c7 4 8 3 4 -5 -4 -6 -16 -9 -26 -6 -10 3 -21 1 -25 -5 -3
-5 -12 -10 -18 -10 -7 0 -4 6 5 14 10 7 14 17 10 21 -4 4 3 2 16 -4 12 -7 28
-9 34 -5z m118 -20 c0 -3 -4 -8 -10 -11 -5 -3 -10 -1 -10 4 0 6 5 11 10 11 6
0 10 -2 10 -4z m90 -17 c0 -5 -4 -9 -10 -9 -5 0 -10 7 -10 16 0 8 5 12 10 9 6
-3 10 -10 10 -16z m-285 -9 c3 -5 1 -10 -4 -10 -6 0 -11 5 -11 10 0 6 2 10 4
10 3 0 8 -4 11 -10z m101 -17 c-10 -10 -19 5 -10 18 6 11 8 11 12 0 2 -7 1
-15 -2 -18z m-97 -22 c-6 -2 -18 4 -27 13 -15 15 -15 15 10 4 15 -7 23 -15 17
-17z m-51 -11 c-7 -11 -19 -20 -27 -20 -11 0 -10 5 4 20 10 11 22 20 27 20 4
0 3 -9 -4 -20z m-28 -40 c0 -5 -2 -10 -4 -10 -3 0 -8 5 -11 10 -3 6 -1 10 4
10 6 0 11 -4 11 -10z m-19 -17 c13 -16 12 -17 -3 -4 -10 7 -18 15 -18 17 0 8
8 3 21 -13z m79 7 c-8 -5 -19 -10 -25 -10 -5 0 -3 5 5 10 8 5 20 10 25 10 6 0
3 -5 -5 -10z m177 -12 c-3 -8 -6 -5 -6 6 -1 11 2 17 5 13 3 -3 4 -12 1 -19z
m-291 -13 c-8 -8 -18 -15 -22 -15 -3 0 -1 7 6 15 7 8 17 15 22 15 5 0 3 -7 -6
-15z m34 -37 c0 -18 -2 -20 -9 -8 -6 8 -7 18 -5 22 9 14 14 9 14 -14z m-65 2
c3 -5 1 -10 -4 -10 -6 0 -11 5 -11 10 0 6 2 10 4 10 3 0 8 -4 11 -10z m207 -8
c3 -12 -1 -18 -12 -18 -11 0 -15 6 -12 18 2 10 8 18 12 18 4 0 10 -8 12 -18z
m-285 -66 c-26 -25 -47 -47 -47 -50 0 -3 -9 -15 -20 -26 -11 -11 -20 -17 -20
-12 0 4 -9 -6 -20 -23 -11 -16 -20 -26 -20 -21 0 6 -7 1 -15 -10 -8 -10 -15
-15 -15 -10 0 13 182 196 195 196 5 0 -11 -20 -38 -44z m203 30 c0 -3 -4 -8
-10 -11 -5 -3 -10 -1 -10 4 0 6 5 11 10 11 6 0 10 -2 10 -4z m50 -36 c5 0 10
6 13 13 2 6 7 10 10 7 4 -3 -4 -18 -16 -32 l-23 -27 0 37 c-1 20 1 29 3 20 3
-10 8 -18 13 -18z m-240 -10 c0 -5 -4 -10 -10 -10 -5 0 -10 5 -10 10 0 6 5 10
10 10 6 0 10 -4 10 -10z m50 -10 c-8 -5 -22 -9 -30 -9 -10 0 -8 3 5 9 27 12
43 12 25 0z m-65 -80 c3 -5 1 -10 -4 -10 -6 0 -11 5 -11 10 0 6 2 10 4 10 3 0
8 -4 11 -10z m35 0 c0 -5 -2 -10 -4 -10 -3 0 -8 5 -11 10 -3 6 -1 10 4 10 6 0
11 -4 11 -10z m125 -20 c-3 -5 -13 -10 -21 -10 -8 0 -14 -7 -14 -15 0 -8 -5
-15 -11 -15 -18 0 -4 24 22 37 29 15 32 16 24 3z m-255 -55 c0 -5 -5 -3 -10 5
-5 8 -10 20 -10 25 0 6 5 3 10 -5 5 -8 10 -19 10 -25z m-65 15 c3 -5 1 -10 -4
-10 -6 0 -11 5 -11 10 0 6 2 10 4 10 3 0 8 -4 11 -10z m-53 -53 c-12 -13 -22
-30 -23 -38 0 -10 -2 -11 -6 -1 -3 8 -16 0 -37 -23 -18 -19 -36 -35 -41 -35
-5 0 19 27 53 60 59 58 99 85 54 37z m168 -101 c0 -1 -8 -9 -19 -18 -18 -15
-19 -14 -17 6 1 17 6 22 19 18 9 -2 17 -5 17 -6z m-304 -48 c4 -7 3 -8 -4 -4
-6 4 -20 -2 -32 -14 -11 -11 -15 -20 -10 -20 6 0 10 -5 10 -12 0 -9 -3 -9 -11
-1 -13 13 -52 -15 -42 -30 4 -6 1 -7 -6 -2 -9 5 0 20 30 51 46 47 54 51 65 32z
m191 -60 c-3 -8 -6 -5 -6 6 -1 11 2 17 5 13 3 -3 4 -12 1 -19z m-297 -32 c0
-3 -4 -8 -10 -11 -5 -3 -10 -1 -10 4 0 6 5 11 10 11 6 0 10 -2 10 -4z m-50
-41 c-6 -8 -9 -19 -5 -24 3 -6 0 -8 -8 -5 -8 3 -17 -2 -20 -10 -4 -9 -12 -16
-19 -16 -6 0 3 16 22 35 34 35 53 48 30 20z m-90 -95 c0 -5 -5 -10 -11 -10 -5
0 -7 5 -4 10 3 6 8 10 11 10 2 0 4 -4 4 -10z m38 -65 c-3 -3 -9 2 -12 12 -6
14 -5 15 5 6 7 -7 10 -15 7 -18z m-123 -17 c-15 -18 -35 -37 -44 -42 -9 -5 2
10 24 33 47 49 57 54 20 9z m235 -43 c-7 -9 -15 -13 -17 -11 -7 7 7 26 19 26
6 0 6 -6 -2 -15z m-312 -44 c-30 -39 -46 -40 -18 -1 12 17 26 30 31 30 6 0 0
-13 -13 -29z"/>
<path d="M7335 5461 c-3 -5 -2 -12 3 -15 5 -3 9 1 9 9 0 17 -3 19 -12 6z"/>
<path d="M6970 5080 c0 -5 5 -10 10 -10 6 0 10 5 10 10 0 6 -4 10 -10 10 -5 0
-10 -4 -10 -10z"/>
<path d="M6955 5039 c-4 -6 -5 -12 -2 -15 2 -3 7 2 10 11 7 17 1 20 -8 4z"/>
<path d="M7041 5004 c0 -11 3 -14 6 -6 3 7 2 16 -1 19 -3 4 -6 -2 -5 -13z"/>
<path d="M6900 4999 c0 -5 5 -7 10 -4 6 3 10 8 10 11 0 2 -4 4 -10 4 -5 0 -10
-5 -10 -11z"/>
<path d="M6982 4940 c0 -14 2 -19 5 -12 2 6 2 18 0 25 -3 6 -5 1 -5 -13z"/>
<path d="M6810 4915 c0 -8 -5 -15 -12 -15 -6 0 -8 -3 -5 -7 4 -3 2 -12 -4 -20
-6 -7 -8 -13 -4 -13 10 0 44 43 45 58 0 6 -4 12 -10 12 -5 0 -10 -7 -10 -15z"/>
<path d="M6860 4910 c0 -5 5 -10 10 -10 6 0 10 5 10 10 0 6 -4 10 -10 10 -5 0
-10 -4 -10 -10z"/>
<path d="M6865 4880 c-18 -8 -17 -9 8 -9 15 -1 27 4 27 9 0 12 -8 12 -35 0z"/>
<path d="M6745 4840 c-3 -6 1 -7 9 -4 18 7 21 14 7 14 -6 0 -13 -4 -16 -10z"/>
<path d="M6800 4810 c0 -11 4 -20 9 -20 5 0 7 9 4 20 -3 11 -7 20 -9 20 -2 0
-4 -9 -4 -20z"/>
<path d="M6690 4810 c-10 -6 -11 -10 -2 -10 6 0 12 -8 12 -17 0 -14 3 -14 12
-5 10 10 10 15 -1 21 -11 7 -11 9 0 14 8 3 10 6 4 6 -5 0 -17 -4 -25 -9z"/>
<path d="M6765 4810 c-3 -5 1 -10 10 -10 9 0 13 5 10 10 -3 6 -8 10 -10 10 -2
0 -7 -4 -10 -10z"/>
<path d="M6880 4801 c0 -6 4 -13 10 -16 6 -3 7 1 4 9 -7 18 -14 21 -14 7z"/>
<path d="M6660 4760 c0 -5 4 -10 9 -10 6 0 13 5 16 10 3 6 -1 10 -9 10 -9 0
-16 -4 -16 -10z"/>
<path d="M6618 4737 c-17 -14 -8 -47 14 -47 9 0 9 3 0 12 -17 17 -15 31 2 25
10 -4 13 -1 9 9 -6 17 -4 16 -25 1z"/>
<path d="M6680 4730 c0 -5 5 -10 10 -10 6 0 10 5 10 10 0 6 -4 10 -10 10 -5 0
-10 -4 -10 -10z"/>
<path d="M6786 4711 c-3 -5 1 -14 8 -20 18 -15 28 0 10 16 -7 7 -15 9 -18 4z"/>
<path d="M6588 4683 c7 -3 16 -2 19 1 4 3 -2 6 -13 5 -11 0 -14 -3 -6 -6z"/>
<path d="M6690 4669 c0 -5 5 -7 10 -4 6 3 10 8 10 11 0 2 -4 4 -10 4 -5 0 -10
-5 -10 -11z"/>
<path d="M6555 4660 c-4 -6 -11 -7 -17 -4 -6 4 -8 2 -4 -4 3 -5 0 -13 -6 -15
-8 -3 -8 -6 -2 -6 6 -1 19 8 29 19 10 11 15 20 12 20 -3 0 -9 -5 -12 -10z"/>
<path d="M6630 4643 c8 -3 19 -11 23 -17 6 -7 7 -6 4 4 -2 8 -12 16 -23 17
-13 2 -15 1 -4 -4z"/>
<path d="M6570 4624 c0 -8 5 -12 10 -9 6 3 10 10 10 16 0 5 -4 9 -10 9 -5 0
-10 -7 -10 -16z"/>
<path d="M6510 4609 c0 -6 -10 -8 -22 -5 -13 3 -18 3 -11 0 7 -3 10 -11 7 -17
-3 -8 9 -12 33 -13 21 -1 30 1 20 3 -12 3 -16 10 -12 24 4 11 2 19 -4 19 -6 0
-11 -5 -11 -11z"/>
<path d="M6610 4604 c-11 -12 -11 -18 2 -31 17 -16 38 -10 38 10 0 7 -4 6 -10
-3 -9 -13 -10 -13 -11 0 -1 8 -1 21 0 28 2 16 -4 15 -19 -4z"/>
<path d="M6439 4553 c-7 -16 -15 -31 -17 -35 -5 -10 69 9 81 21 8 8 7 11 -3
11 -7 0 -21 7 -30 15 -15 14 -18 12 -31 -12z m31 -7 c0 -3 -4 -8 -10 -11 -5
-3 -10 -1 -10 4 0 6 5 11 10 11 6 0 10 -2 10 -4z"/>
<path d="M6556 4561 c-11 -5 -21 -19 -23 -35 -3 -20 0 -27 9 -23 7 2 12 12 10
21 -2 9 6 20 19 25 12 4 18 10 13 13 -5 3 -18 2 -28 -1z"/>
<path d="M6590 4500 c0 -5 5 -10 11 -10 5 0 7 5 4 10 -3 6 -8 10 -11 10 -2 0
-4 -4 -4 -10z"/>
<path d="M6555 4490 c-3 -5 -1 -10 4 -10 6 0 11 5 11 10 0 6 -2 10 -4 10 -3 0
-8 -4 -11 -10z"/>
<path d="M6380 4480 c0 -5 5 -10 11 -10 5 0 7 5 4 10 -3 6 -8 10 -11 10 -2 0
-4 -4 -4 -10z"/>
<path d="M6530 4470 c0 -5 5 -10 11 -10 5 0 7 5 4 10 -3 6 -8 10 -11 10 -2 0
-4 -4 -4 -10z"/>
<path d="M6570 4470 c-8 -5 -11 -12 -7 -16 4 -4 13 -2 19 4 15 15 7 24 -12 12z"/>
<path d="M6530 4430 c0 -5 4 -10 9 -10 6 0 13 5 16 10 3 6 -1 10 -9 10 -9 0
-16 -4 -16 -10z"/>
<path d="M6235 4340 c-3 -5 -12 -7 -21 -3 -18 7 -15 -13 6 -39 17 -21 36 -24
42 -6 3 7 12 9 23 4 17 -6 17 -8 -4 -22 -21 -15 -21 -17 -4 -30 16 -12 15 -13
-14 -8 -18 4 -33 4 -33 1 0 -4 15 -14 33 -23 17 -10 38 -24 45 -33 12 -14 13
-12 7 13 -5 23 -3 27 9 23 17 -7 22 8 7 17 -4 3 -7 16 -7 28 1 13 -2 32 -7 43
-8 16 -7 18 4 8 7 -7 22 -13 34 -12 11 0 14 3 8 6 -7 2 -13 11 -13 20 0 9 -7
13 -17 9 -10 -2 -28 -7 -40 -11 -17 -5 -23 -2 -23 9 0 17 -25 22 -35 6z m25
-19 c0 -6 -4 -13 -10 -16 -5 -3 -10 1 -10 9 0 9 5 16 10 16 6 0 10 -4 10 -9z"/>
<path d="M6417 4301 c-16 -10 -25 -21 -19 -24 8 -6 52 27 52 38 0 7 -3 6 -33
-14z"/>
<path d="M6170 4280 c-20 -17 -21 -40 -1 -40 13 0 42 48 32 54 -5 3 -18 -3
-31 -14z"/>
<path d="M6340 4270 c0 -5 6 -10 14 -10 8 0 18 5 21 10 3 6 -3 10 -14 10 -12
0 -21 -4 -21 -10z"/>
<path d="M6419 4253 c-13 -16 -12 -17 4 -4 9 7 17 15 17 17 0 8 -8 3 -21 -13z"/>
<path d="M6361 4253 c-22 -3 -30 -7 -22 -12 15 -10 61 -2 61 10 0 5 -1 8 -2 7
-2 0 -18 -3 -37 -5z"/>
<path d="M6145 4210 c-3 -5 -1 -10 4 -10 6 0 11 5 11 10 0 6 -2 10 -4 10 -3 0
-8 -4 -11 -10z"/>
<path d="M6210 4049 c0 -5 5 -7 10 -4 6 3 10 8 10 11 0 2 -4 4 -10 4 -5 0 -10
-5 -10 -11z"/>
<path d="M6060 3944 c0 -17 22 -14 28 4 2 7 -3 12 -12 12 -9 0 -16 -7 -16 -16z"/>
<path d="M6085 3920 c-3 -6 1 -7 9 -4 18 7 21 14 7 14 -6 0 -13 -4 -16 -10z"/>
<path d="M6041 3884 c-7 -8 -11 -17 -9 -20 3 -2 13 5 23 16 10 11 14 20 9 20
-5 -1 -15 -8 -23 -16z"/>
<path d="M5810 3654 c0 -8 5 -12 10 -9 6 4 8 11 5 16 -9 14 -15 11 -15 -7z"/>
<path d="M7617 2629 c7 -7 15 -10 18 -7 3 3 -2 9 -12 12 -14 6 -15 5 -6 -5z"/>
<path d="M7630 2600 c-9 -6 -10 -10 -3 -10 6 0 15 5 18 10 8 12 4 12 -15 0z"/>
<path d="M7525 2540 c-3 -6 1 -7 9 -4 18 7 21 14 7 14 -6 0 -13 -4 -16 -10z"/>
<path d="M7325 2510 c-4 -6 -3 -16 3 -22 13 -13 23 4 13 21 -7 10 -10 10 -16
1z"/>
<path d="M7281 2488 l-1 -28 -362 -3 -363 -2 365 -2 c284 -2 379 1 430 12 36
8 49 13 30 11 -51 -6 -88 4 -93 23 -3 9 -5 4 -6 -11z"/>
<path d="M7213 2473 c9 -2 23 -2 30 0 6 3 -1 5 -18 5 -16 0 -22 -2 -12 -5z"/>
<path d="M6298 2453 c7 -3 16 -2 19 1 4 3 -2 6 -13 5 -11 0 -14 -3 -6 -6z"/>
</g>
</svg>
